Coordinates
version=1
nRows=32
nColumns=12
inDegrees=yes

Units are S.I. units (second, meters, Newtons, ...)
Angles are in degrees

endheader
time	SC_y	SC_z	SC_x	AC_y	AC_z	AC_x	GH_y	GH_z	GH_yy	EL_x	PS_y
       0.0              -31.82          6.766          58.14          30.64         -5.221         -8.996          163.5          7.436         -178.7          68.48          35.52
    0.0359              -31.82          6.769          58.14          30.64         -5.222         -8.996          163.5          7.434         -178.7          68.47          35.53
    0.0718              -31.82          6.772          58.14          30.65         -5.224         -8.995          163.5          7.432         -178.6          68.46          35.54
    0.1077              -31.83          6.774          58.13          30.65         -5.225         -8.995          163.4           7.43         -178.6          68.45          35.54
    0.1436              -31.83          6.778          58.13          30.66         -5.227         -8.995          163.4          7.428         -178.5          68.44          35.55
    0.1795              -31.83          6.781          58.13          30.66         -5.229         -8.995          163.4          7.425         -178.4          68.43          35.56
    0.2154              -31.84          6.785          58.13          30.67          -5.23         -8.995          163.4          7.423         -178.4          68.42          35.57
    0.2513              -31.84          6.788          58.13          30.68         -5.232         -8.994          163.3           7.42         -178.3          68.41          35.58
    0.2872              -31.84          6.792          58.13          30.68         -5.234         -8.994          163.3          7.417         -178.2          68.39          35.59
    0.3231              -31.85          6.797          58.13          30.69         -5.237         -8.994          163.3          7.414         -178.1          68.38           35.6
     0.359              -31.85          6.802          58.12           30.7         -5.239         -8.993          163.3          7.411         -178.0          68.36          35.61
    0.3949              -31.86          6.807          58.12          30.71         -5.242         -8.993          163.2          7.408         -177.9          68.35          35.62
    0.4308              -31.86          6.812          58.12          30.72         -5.245         -8.993          163.2          7.404         -177.8          68.33          35.64
    0.4667              -31.87          6.818          58.12          30.73         -5.248         -8.992          163.2            7.4         -177.7          68.31          35.65
    0.5026              -31.87          6.824          58.11          30.74         -5.251         -8.992          163.1          7.395         -177.6          68.29          35.67
    0.5385              -31.88          6.831          58.11          30.75         -5.254         -8.991          163.1           7.39         -177.5          68.26          35.69
    0.5744              -31.89          6.839          58.11          30.76         -5.258         -8.991          163.0          7.385         -177.3          68.24           35.7
    0.6103              -31.89          6.847          58.11          30.78         -5.262          -8.99          163.0          7.379         -177.2          68.21          35.73
    0.6462               -31.9          6.856           58.1          30.79         -5.267         -8.989          162.9          7.373         -177.0          68.18          35.75
    0.6821              -31.91          6.866           58.1          30.81         -5.272         -8.989          162.9          7.366         -176.8          68.15          35.77
     0.718              -31.92          6.877          58.09          30.83         -5.278         -8.988          162.8          7.359         -176.6          68.11           35.8
    0.7539              -31.93          6.889          58.09          30.85         -5.284         -8.987          162.7          7.351         -176.4          68.07          35.83
    0.7898              -31.95          6.902          58.08          30.87          -5.29         -8.986          162.7          7.341         -176.1          68.03          35.86
    0.8257              -31.96          6.916          58.08          30.89         -5.298         -8.985          162.6          7.331         -175.8          67.98           35.9
    0.8615              -31.98          6.932          58.07          30.92         -5.306         -8.984          162.5           7.32         -175.5          67.92          35.94
    0.8974              -31.99           6.95          58.06          30.95         -5.315         -8.983          162.4          7.308         -175.2          67.86          35.98
    0.9333              -32.01          6.971          58.06          30.99         -5.325         -8.981          162.2          7.293         -174.8          67.79          36.03
    0.9692              -32.03          6.993          58.05          31.02         -5.337          -8.98          162.1          7.278         -174.3          67.72          36.09
     1.005              -32.06          7.019          58.04          31.07          -5.35         -8.978          161.9           7.26         -173.8          67.63          36.15
     1.041              -32.09          7.048          58.02          31.12         -5.365         -8.976          161.8           7.24         -173.3          67.53          36.22
     1.077              -32.12          7.081          58.01          31.17         -5.382         -8.973          161.6          7.216         -172.6          67.42          36.31
     1.113              -32.15          7.119          57.99          31.24         -5.402         -8.971          161.3           7.19         -171.9          67.29           36.4
